<!-- <svg xmlns="http://www.w3.org/2000/svg" viewBox="0 0 24 24" fill="rgba(255,255,255,1)"><path d="M18 8H20C20.5523 8 21 8.44772 21 9V21C21 21.5523 20.5523 22 20 22H4C3.44772 22 3 21.5523 3 21V9C3 8.44772 3.44772 8 4 8H6V7C6 3.68629 8.68629 1 12 1C15.3137 1 18 3.68629 18 7V8ZM11 15.7324V18H13V15.7324C13.5978 15.3866 14 14.7403 14 14C14 12.8954 13.1046 12 12 12C10.8954 12 10 12.8954 10 14C10 14.7403 10.4022 15.3866 11 15.7324ZM16 8V7C16 4.79086 14.2091 3 12 3C9.79086 3 8 4.79086 8 7V8H16Z"></path></svg> -->
<svg xmlns="http://www.w3.org/2000/svg" viewBox="0 0 24 24" fill="rgba(255,255,255,1)"><path d="M10.0049 19.9998H6.00488V21.9998H4.00488V19.9998H3.00488C2.4526 19.9998 2.00488 19.552 2.00488 18.9998V3.99977C2.00488 3.44748 2.4526 2.99977 3.00488 2.99977H10.0049V1.59C10.0049 1.31385 10.2287 1.09 10.5049 1.09C10.5324 1.09 10.5599 1.09227 10.5871 1.0968L21.1693 2.8605C21.6515 2.94086 22.0049 3.35805 22.0049 3.84689V5.99977H23.0049V7.99977H22.0049V14.9998H23.0049V16.9998H22.0049V19.1526C22.0049 19.6415 21.6515 20.0587 21.1693 20.139L20.0049 20.3331V21.9998H18.0049V20.6664L10.5871 21.9027C10.3147 21.9481 10.0571 21.7641 10.0117 21.4917C10.0072 21.4646 10.0049 21.4371 10.0049 21.4095V19.9998ZM12.0049 19.6388L20.0049 18.3055V4.69402L12.0049 3.36069V19.6388ZM16.5049 13.9998C15.6765 13.9998 15.0049 12.8805 15.0049 11.4998C15.0049 10.1191 15.6765 8.99977 16.5049 8.99977C17.3333 8.99977 18.0049 10.1191 18.0049 11.4998C18.0049 12.8805 17.3333 13.9998 16.5049 13.9998Z"></path></svg>